<svg width="39" height="39" viewBox="0 0 39 39" fill="none" xmlns="http://www.w3.org/2000/svg">
    <path
        d="M38.1431 19.5715C38.1431 24.497 36.1864 29.2208 32.7036 32.7036C29.2208 36.1864 24.497 38.1431 19.5715 38.1431C14.6461 38.1431 9.92231 36.1864 6.43948 32.7036C2.95664 29.2208 1 24.497 1 19.5715M38.1431 19.5715C38.1431 14.6461 36.1864 9.92231 32.7036 6.43948C29.2208 2.95664 24.497 1 19.5715 1C14.6461 1 9.92231 2.95664 6.43948 6.43948C2.95664 9.92231 1 14.6461 1 19.5715M38.1431 19.5715H1"
        stroke="black" stroke-width="1.71429" stroke-linecap="round" stroke-linejoin="round" />
    <path
        d="M26.7145 19.5715C26.3636 26.363 23.8621 32.8669 19.5716 38.1431C15.2811 32.8669 12.7796 26.363 12.4287 19.5715C12.7796 12.7801 15.2811 6.27618 19.5716 1C23.8621 6.27618 26.3636 12.7801 26.7145 19.5715Z"
        stroke="black" stroke-width="1.71429" stroke-linecap="round" stroke-linejoin="round" />
</svg>