<svg xmlns="http://www.w3.org/2000/svg" width="44" height="36" viewBox="0 0 44 36" fill="none">
    <path
        d="M3.95022 36C2.82415 36 1.88467 35.604 1.13178 34.812C0.378889 34.02 0.00162963 33.0309 0 31.8446V4.15543C0 2.97086 0.377259 1.98257 1.13178 1.19057C1.8863 0.398571 2.82496 0.00171429 3.94778 0H14.4833C15.0097 0 15.5214 0.111429 16.0184 0.334286C16.5155 0.560572 16.9408 0.859714 17.2944 1.23171L21.0124 5.14286H40.0522C41.1767 5.14286 42.1161 5.53971 42.8707 6.33343C43.6252 7.12714 44.0016 8.11543 44 9.29829V31.8471C44 33.03 43.6236 34.0183 42.8707 34.812C42.1178 35.6057 41.1783 36.0017 40.0522 36H3.95022ZM3.95022 33.4286H40.0522C40.4906 33.4286 40.8507 33.2803 41.1327 32.9837C41.4146 32.6871 41.5555 32.3083 41.5555 31.8471V9.29571C41.5555 8.83457 41.4146 8.45571 41.1327 8.15914C40.8507 7.86257 40.4906 7.71428 40.0522 7.71428H20.0322L15.5613 3.01628C15.4049 2.85171 15.2403 2.73686 15.0676 2.67171C14.8981 2.60486 14.7204 2.57143 14.5347 2.57143H3.95022C3.51185 2.57143 3.1517 2.71971 2.86978 3.01628C2.58785 3.31286 2.44607 3.69257 2.44444 4.15543V31.8471C2.44444 32.3083 2.58541 32.6871 2.86733 32.9837C3.14926 33.2803 3.51022 33.4286 3.95022 33.4286ZM28.1111 21.8571V25.7143C28.1111 26.0811 28.2276 26.3871 28.4607 26.6323C28.6937 26.8774 28.9846 27 29.3333 27C29.6821 27 29.973 26.8774 30.206 26.6323C30.439 26.3871 30.5556 26.0811 30.5556 25.7143V21.8571H34.2222C34.571 21.8571 34.8619 21.7346 35.0949 21.4894C35.3279 21.2443 35.4444 20.9383 35.4444 20.5714C35.4444 20.2046 35.3279 19.8986 35.0949 19.6534C34.8619 19.4083 34.571 19.2857 34.2222 19.2857H30.5556V15.4286C30.5556 15.0634 30.439 14.7574 30.206 14.5106C29.973 14.2637 29.6821 14.1411 29.3333 14.1429C28.9846 14.1446 28.6937 14.2671 28.4607 14.5106C28.2276 14.754 28.1111 15.06 28.1111 15.4286V19.2857H24.4444C24.0973 19.2857 23.8064 19.4083 23.5718 19.6534C23.3371 19.8986 23.2206 20.2046 23.2222 20.5714C23.2239 20.9383 23.3404 21.2443 23.5718 21.4894C23.8032 21.7346 24.0941 21.8571 24.4444 21.8571H28.1111Z"
        fill="black" />
</svg>