<svg width="47" height="35" viewBox="0 0 47 35" fill="none" xmlns="http://www.w3.org/2000/svg">
    <path
        d="M24.5587 25.2417C27.1992 23.8368 29.2941 21.5893 30.5101 18.8567C31.7261 16.1241 31.9934 13.0633 31.2694 10.1613C30.5455 7.2593 28.8719 4.68272 26.5149 2.84145C24.1578 1.00019 21.2528 0 18.2618 0C15.2709 0 12.3658 1.00019 10.0088 2.84145C7.65176 4.68272 5.97816 7.2593 5.25421 10.1613C4.53026 13.0633 4.79755 16.1241 6.01356 18.8567C7.22957 21.5893 9.32445 23.8368 11.9649 25.2417C7.49619 26.5051 3.45807 29.1315 0.262913 32.936C0.066299 33.1846 -0.0257691 33.4999 0.0062336 33.8152C0.0382363 34.1305 0.191793 34.421 0.434339 34.6249C0.676885 34.8289 0.989344 34.9304 1.30545 34.9078C1.62156 34.8853 1.91646 34.7405 2.1276 34.5042C6.29979 29.5459 12.0279 26.8138 18.2618 26.8138C24.4957 26.8138 30.2259 29.5459 34.392 34.5042C34.4932 34.6321 34.619 34.7384 34.7621 34.8168C34.9051 34.8952 35.0625 34.9441 35.2247 34.9606C35.387 34.977 35.551 34.9608 35.7069 34.9127C35.8627 34.8646 36.0074 34.7858 36.1322 34.6808C36.2571 34.5758 36.3596 34.4468 36.4336 34.3015C36.5077 34.1562 36.5519 33.9974 36.5635 33.8347C36.5751 33.672 36.5539 33.5086 36.5012 33.3543C36.4485 33.1999 36.3653 33.0577 36.2567 32.936C33.0615 29.1315 29.0274 26.5051 24.5587 25.2417ZM7.29307 13.4076C7.29307 11.2382 7.93638 9.11749 9.14164 7.31369C10.3469 5.50988 12.06 4.10399 14.0643 3.27379C16.0685 2.44359 18.274 2.22638 20.4017 2.64961C22.5294 3.07284 24.4839 4.11751 26.0179 5.65152C27.5519 7.18553 28.5966 9.13997 29.0198 11.2677C29.443 13.3954 29.2258 15.6009 28.3956 17.6052C27.5654 19.6094 26.1595 21.3225 24.3557 22.5278C22.5519 23.733 20.4312 24.3763 18.2618 24.3763C15.3537 24.3731 12.5656 23.2165 10.5093 21.1601C8.45296 19.1038 7.2963 16.3157 7.29307 13.4076ZM38.0706 4.95557C39.2072 7.62843 39.793 10.5031 39.793 13.4076C39.793 16.3121 39.2072 19.1868 38.0706 21.8596C37.9287 22.1323 37.689 22.3412 37.3996 22.4446C37.1101 22.548 36.7923 22.5383 36.5098 22.4173C36.2272 22.2963 36.0008 22.0731 35.8759 21.7922C35.751 21.5114 35.7368 21.1938 35.8362 20.9029C36.8441 18.5326 37.3636 15.9833 37.3636 13.4076C37.3636 10.8319 36.8441 8.28262 35.8362 5.91228C35.7368 5.62144 35.751 5.30379 35.8759 5.02296C36.0008 4.74213 36.2272 4.51887 36.5098 4.39789C36.7923 4.27691 37.1101 4.26715 37.3996 4.37057C37.689 4.47398 37.9287 4.68293 38.0706 4.95557ZM46.2931 13.4076C46.3003 17.2043 45.5317 20.9625 44.0343 24.4515C43.8944 24.7286 43.654 24.9418 43.3622 25.0477C43.0704 25.1536 42.7492 25.1441 42.4642 25.0213C42.1791 24.8985 41.9516 24.6715 41.8282 24.3867C41.7048 24.1019 41.6947 23.7807 41.7999 23.4887C43.1605 20.3019 43.8619 16.8727 43.8619 13.4076C43.8619 9.94252 43.1605 6.5133 41.7999 3.3265C41.6947 3.0345 41.7048 2.71332 41.8282 2.42852C41.9516 2.14371 42.1791 1.91673 42.4642 1.79389C42.7492 1.67106 43.0704 1.66162 43.3622 1.76751C43.654 1.87339 43.8944 2.08662 44.0343 2.36369C45.5317 5.8527 46.3003 9.61087 46.2931 13.4076Z"
        fill="black" />
</svg>