<svg width="28" height="28" viewBox="0 0 28 28" fill="none" xmlns="http://www.w3.org/2000/svg">
    <path
        d="M4.17627 26.999C4.6044 27.0097 5.03035 26.9346 5.42902 26.7782C5.82769 26.6218 6.19103 26.3871 6.49762 26.0881C6.80421 25.7891 7.04787 25.4317 7.21423 25.0371C7.38059 24.6425 7.4663 24.2185 7.4663 23.7903C7.4663 23.362 7.38059 22.9381 7.21423 22.5434C7.04787 22.1488 6.80421 21.7915 6.49762 21.4924C6.19103 21.1934 5.82769 20.9588 5.42902 20.8024C5.03035 20.6459 4.6044 20.5708 4.17627 20.5816C3.33918 20.6025 2.54341 20.9498 1.95876 21.5492C1.37411 22.1487 1.04688 22.9529 1.04688 23.7903C1.04688 24.6276 1.37411 25.4318 1.95876 26.0313C2.54341 26.6308 3.33918 26.978 4.17627 26.999ZM18.619 23.7893C19.0471 23.8 19.473 23.7249 19.8717 23.5685C20.2704 23.412 20.6337 23.1774 20.9403 22.8784C21.2469 22.5794 21.4906 22.222 21.6569 21.8274C21.8233 21.4328 21.909 21.0088 21.909 20.5806C21.909 20.1523 21.8233 19.7284 21.6569 19.3337C21.4906 18.9391 21.2469 18.5817 20.9403 18.2827C20.6337 17.9837 20.2704 17.7491 19.8717 17.5926C19.473 17.4362 19.0471 17.3611 18.619 17.3719C17.7819 17.3928 16.9861 17.7401 16.4015 18.3395C15.8168 18.939 15.4896 19.7432 15.4896 20.5806C15.4896 21.4179 15.8168 22.2221 16.4015 22.8216C16.9861 23.4211 17.7819 23.7683 18.619 23.7893Z"
        stroke="white" stroke-linecap="round" stroke-linejoin="round" />
    <path
        d="M7.38477 23.7891V10.7614C7.38575 10.5853 7.44449 10.4145 7.55196 10.2751C7.65943 10.1357 7.8097 10.0354 7.97968 9.9896L10.5121 9.26404M7.38477 14.9639L15.5447 12.6968M21.8255 20.5814V17.7496M14.7709 7.92549C14.0675 7.80289 14.0675 6.78993 14.7709 6.66733C16.0204 6.4503 17.1768 5.86603 18.0929 4.98903C19.0089 4.11203 19.6429 2.98205 19.9141 1.74323L19.9563 1.54828C20.109 0.850864 21.1019 0.846844 21.2607 1.54225L21.3109 1.76936C21.5923 3.00269 22.232 4.12531 23.1496 4.99609C24.0672 5.86686 25.2218 6.44691 26.4682 6.66331C27.1776 6.78792 27.1776 7.8049 26.4682 7.92951C25.2218 8.14591 24.0672 8.72597 23.1496 9.59674C22.232 10.4675 21.5923 11.5901 21.3109 12.8235L21.2607 13.0486C21.0999 13.746 20.109 13.74 19.9563 13.0445L19.9141 12.8496C19.6429 11.6108 19.0089 10.4808 18.0929 9.6038C17.1768 8.7268 16.0204 8.14252 14.7709 7.92549Z"
        stroke="white" stroke-linecap="round" stroke-linejoin="round" />
</svg>