<svg width="30" height="30" viewBox="0 0 30 30" fill="none" xmlns="http://www.w3.org/2000/svg">
    <path
        d="M1 14.08C1.82311 13.9314 2.65787 13.8569 3.49429 13.8572C6.88 13.8572 9.98071 15.0636 12.3957 17.0715"
        stroke="white" stroke-width="2" stroke-linecap="round" stroke-linejoin="round" />
    <path
        d="M10.6429 22.4286H3.14286C2.57454 22.4286 2.02949 22.2028 1.62763 21.8009C1.22576 21.3991 1 20.854 1 20.2857V3.14286C1 2.57454 1.22576 2.02949 1.62763 1.62763C2.02949 1.22576 2.57454 1 3.14286 1H20.2857C20.854 1 21.3991 1.22576 21.8009 1.62763C22.2028 2.02949 22.4286 2.57454 22.4286 3.14286V10.6429"
        stroke="white" stroke-width="2" stroke-linecap="round" stroke-linejoin="round" />
    <path
        d="M13.3211 11.7143C14.0316 11.7143 14.7129 11.4321 15.2152 10.9298C15.7175 10.4275 15.9997 9.74615 15.9997 9.03575C15.9997 8.32535 15.7175 7.64404 15.2152 7.14171C14.7129 6.63938 14.0316 6.35718 13.3211 6.35718C12.6107 6.35718 11.9294 6.63938 11.4271 7.14171C10.9248 7.64404 10.6426 8.32535 10.6426 9.03575C10.6426 9.74615 10.9248 10.4275 11.4271 10.9298C11.9294 11.4321 12.6107 11.7143 13.3211 11.7143ZM15.494 22.2872C14.7419 22.1565 14.7419 21.0765 15.494 20.9458C16.8258 20.714 18.0583 20.0908 19.0345 19.1558C20.0108 18.2208 20.6865 17.0163 20.9754 15.6957L21.0204 15.4879C21.1833 14.7443 22.2419 14.74 22.4111 15.4815L22.4669 15.7236C22.767 17.0381 23.4488 18.2347 24.4267 19.1631C25.4045 20.0914 26.6349 20.7101 27.9633 20.9415C28.7197 21.0743 28.7197 22.1586 27.9633 22.2915C26.6348 22.5226 25.4043 23.1412 24.4264 24.0696C23.4484 24.9979 22.7667 26.1947 22.4669 27.5093L22.4111 27.7515C22.2419 28.4929 21.1833 28.4886 21.0204 27.745L20.9754 27.5372C20.6865 26.2167 20.0108 25.0121 19.0345 24.0771C18.0583 23.1421 16.8258 22.519 15.494 22.2872Z"
        stroke="white" stroke-width="2" stroke-linecap="round" stroke-linejoin="round" />
</svg>