<svg width="27" height="39" viewBox="0 0 27 39" fill="none" xmlns="http://www.w3.org/2000/svg">
    <path fill-rule="evenodd" clip-rule="evenodd"
        d="M13.5 9.93661C16.9341 9.93661 20.1234 10.5306 22.518 11.5566C23.7111 12.0679 24.786 12.721 25.5859 13.531C26.3925 14.3477 27 15.4176 27 16.6866C27 17.9556 26.3925 19.0255 25.5859 19.8422C24.786 20.6522 23.7127 21.3053 22.518 21.8166C22.3267 21.8988 22.1337 21.977 21.9392 22.0512C21.9729 24.3884 22.3763 26.7289 22.7728 28.489L22.9702 29.3159L23.1559 30.033C23.5643 31.5518 22.9028 33.403 21.1275 34.0122C20.9419 34.0752 20.7422 34.1404 20.5284 34.2079L19.8416 34.407C18.2588 34.8407 16.0819 35.2491 13.5 35.2491C10.9181 35.2491 8.74125 34.8407 7.15837 34.407L6.47156 34.2079C6.25669 34.1404 6.057 34.0752 5.8725 34.0122C4.09894 33.403 3.43575 31.5501 3.84412 30.033L4.02975 29.3175C4.48031 27.5085 5.022 24.7782 5.05913 22.0512C4.86517 21.9769 4.67275 21.8987 4.482 21.8166C3.28894 21.3053 2.214 20.6522 1.41412 19.8422C0.6075 19.0255 0 17.9556 0 16.6866C0 15.4176 0.6075 14.3477 1.41412 13.531C2.214 12.721 3.28725 12.0679 4.482 11.5566C6.87656 10.5306 10.0659 9.93661 13.5 9.93661ZM18.5929 22.9759C17.0134 23.2763 15.2887 23.4366 13.5 23.4366C11.7113 23.4366 9.98662 23.2763 8.40881 22.9759C8.31872 24.6571 8.10894 26.3297 7.78106 27.981L7.587 28.926L7.48744 29.3648L7.29506 30.1714L7.1145 30.8684L7.69331 31.0506C9.57966 31.6008 11.5351 31.8781 13.5 31.8741C15.9368 31.8741 17.9482 31.4522 19.305 31.0506L19.8855 30.8684L19.7978 30.5359L19.6087 29.7816C19.5406 29.4971 19.4754 29.2119 19.413 28.926L19.2189 27.981C18.8916 26.3297 18.6824 24.657 18.5929 22.9759ZM13.5 13.3116C10.4119 13.3116 7.695 13.8516 5.81175 14.6582C4.86675 15.0632 4.212 15.502 3.81713 15.9019C3.47625 16.2462 3.39356 16.4909 3.37837 16.6326L3.375 16.6866C3.375 16.8149 3.429 17.0781 3.81713 17.4713C4.212 17.8729 4.86844 18.3117 5.81175 18.715C7.695 19.5216 10.4119 20.0616 13.5 20.0616C16.5881 20.0616 19.305 19.5216 21.1882 18.715C22.1332 18.31 22.788 17.8712 23.1829 17.4713C23.571 17.0781 23.625 16.8149 23.625 16.6866C23.625 16.5584 23.571 16.2951 23.1829 15.9019C22.788 15.5003 22.1316 15.0615 21.1882 14.6582C19.305 13.8516 16.5881 13.3116 13.5 13.3116ZM13.5 14.9991C16.2962 14.9991 18.5625 15.7551 18.5625 16.6866C18.5625 17.6181 16.2962 18.3741 13.5 18.3741C10.7038 18.3741 8.4375 17.6181 8.4375 16.6866C8.4375 15.7551 10.7038 14.9991 13.5 14.9991ZM8.97412 0.947294L9.30656 0.285794C9.49219 -0.0736436 9.585 -0.109081 9.79088 0.265544L9.92925 0.538919C10.7212 2.18762 11.9715 3.57321 13.5304 4.52986C13.9725 4.80154 14.0501 4.87917 13.6603 5.13567L13.5304 5.21836C12.1045 6.09366 10.9346 7.32936 10.1385 8.80092L9.80438 9.46242C9.61875 9.82186 9.52594 9.8573 9.32006 9.48267L9.18169 9.20929C8.45707 7.69976 7.34703 6.4081 5.96362 5.46473L5.3595 5.07661C5.12663 4.90786 5.14012 4.81842 5.45062 4.61254L5.58056 4.52986C7.00643 3.65456 8.17804 2.41885 8.97412 0.947294ZM20.0964 3.45154L19.9682 3.67092C19.4187 4.67133 18.6185 5.51164 17.6462 6.10936L17.2648 6.33211C16.9526 6.50254 16.9054 6.56498 17.0708 6.67804L17.2648 6.79111C18.2778 7.33318 19.1357 8.12486 19.7572 9.09117L20.0964 9.67167C20.2264 9.86573 20.2956 9.85054 20.4137 9.65817L20.5318 9.45061C21.0815 8.45082 21.8817 7.6111 22.8538 7.01386L23.2352 6.79111C23.5474 6.62067 23.5946 6.55823 23.4293 6.44517L23.2352 6.33211C22.0961 5.72526 21.1572 4.80156 20.5318 3.67261L20.4137 3.46504C20.2956 3.27267 20.2264 3.25748 20.0964 3.45154Z"
        fill="white" />
</svg>