<svg width="28" height="27" viewBox="0 0 28 27" fill="none" xmlns="http://www.w3.org/2000/svg">
    <path
        d="M9.22334 6.09361C9.33829 6.02875 9.46819 5.99636 9.59957 5.99979C9.73096 6.00322 9.85906 6.04234 9.97059 6.1131L15.866 9.86555C15.9703 9.93214 16.0565 10.0243 16.1169 10.1335C16.1772 10.2428 16.2096 10.3657 16.2112 10.491C16.2128 10.6163 16.1836 10.74 16.1261 10.8508C16.0686 10.9616 15.9848 11.056 15.8822 11.1254L9.9868 15.0983C9.87574 15.1731 9.74683 15.2159 9.61378 15.2221C9.48073 15.2283 9.34851 15.1977 9.23119 15.1335C9.11387 15.0694 9.01582 14.9741 8.94748 14.8577C8.87915 14.7414 8.84307 14.6084 8.84309 14.4729V6.74901C8.84323 6.61517 8.87857 6.48382 8.94543 6.36857C9.0123 6.25332 9.10825 6.15838 9.22334 6.09361ZM0 3.74945C0 2.75503 0.3882 1.80135 1.0792 1.09819C1.7702 0.39503 2.7074 0 3.68462 0H19.897C20.8742 0 21.8114 0.39503 22.5024 1.09819C23.1934 1.80135 23.5816 2.75503 23.5816 3.74945V9.57159C23.1763 9.20266 22.6515 8.99869 22.1077 8.99868V3.74945C22.1077 3.1528 21.8748 2.58059 21.4602 2.15869C21.0456 1.7368 20.4833 1.49978 19.897 1.49978H3.68462C3.09829 1.49978 2.53597 1.7368 2.12137 2.15869C1.70677 2.58059 1.47385 3.1528 1.47385 3.74945V17.2475C1.47385 17.8441 1.70677 18.4163 2.12137 18.8382C2.53597 19.2601 3.09829 19.4971 3.68462 19.4971H16.0325L14.5572 20.9969H3.68462C2.7074 20.9969 1.7702 20.6019 1.0792 19.8987C0.3882 19.1956 0 18.2419 0 17.2475V3.74945ZM22.8388 11.1569C22.8161 10.9758 22.7294 10.8094 22.5948 10.6888C22.4602 10.5682 22.2871 10.5016 22.1077 10.5016C21.9284 10.5016 21.7552 10.5682 21.6206 10.6888C21.4861 10.8094 21.3993 10.9758 21.3767 11.1569L21.2323 12.3432C21.1319 13.1732 20.7617 13.9452 20.1806 14.5366C19.5995 15.1279 18.8408 15.5046 18.0252 15.6067L16.8594 15.7537C16.6815 15.7767 16.5179 15.865 16.3994 16.0019C16.2809 16.1389 16.2155 16.3151 16.2155 16.4976C16.2155 16.6801 16.2809 16.8563 16.3994 16.9932C16.5179 17.1302 16.6815 17.2184 16.8594 17.2415L18.0252 17.3884C18.8408 17.4906 19.5995 17.8672 20.1806 18.4586C20.7617 19.0499 21.1319 19.822 21.2323 20.652L21.3767 21.8383C21.3993 22.0193 21.4861 22.1857 21.6206 22.3064C21.7552 22.427 21.9284 22.4935 22.1077 22.4935C22.2871 22.4935 22.4602 22.427 22.5948 22.3064C22.7294 22.1857 22.8161 22.0193 22.8388 21.8383L22.9832 20.652C23.0835 19.8222 23.4534 19.0503 24.0342 18.459C24.6151 17.8677 25.3734 17.4909 26.1888 17.3884L27.3561 17.2415C27.534 17.2184 27.6975 17.1302 27.8161 16.9932C27.9346 16.8563 28 16.6801 28 16.4976C28 16.3151 27.9346 16.1389 27.8161 16.0019C27.6975 15.865 27.534 15.7767 27.3561 15.7537L26.1903 15.6067C25.3746 15.5046 24.6159 15.1279 24.0348 14.5366C23.4537 13.9452 23.0836 13.1732 22.9832 12.3432L22.8388 11.1569ZM20.0399 16.4976C20.9142 16.0138 21.6324 15.2831 22.1077 14.3934C22.5823 15.2828 23.3015 16.0131 24.1755 16.4976C23.3015 16.9805 22.5838 17.7124 22.1077 18.6018C21.6324 17.7121 20.9142 16.9813 20.0399 16.4976ZM18.9434 20.7779C19.0817 20.6373 19.1596 20.4466 19.1597 20.2476C19.1598 20.0486 19.0823 19.8577 18.9441 19.7169C18.8059 19.576 18.6184 19.4969 18.4229 19.4967C18.2273 19.4966 18.0397 19.5755 17.9014 19.7161L12.006 25.7107C11.9356 25.7799 11.8794 25.8626 11.8408 25.9541C11.8022 26.0456 11.7819 26.144 11.781 26.2436C11.7802 26.3432 11.7988 26.4419 11.8359 26.5341C11.8729 26.6262 11.9276 26.71 11.9968 26.7804C12.066 26.8508 12.1483 26.9065 12.2389 26.9442C12.3294 26.9819 12.4265 27.0008 12.5243 27C12.6222 26.9991 12.7189 26.9784 12.8088 26.9391C12.8987 26.8998 12.98 26.8427 13.048 26.7711L18.9434 20.7779Z"
        fill="white" />
</svg>