<svg width="26" height="26" viewBox="0 0 26 26" fill="none" xmlns="http://www.w3.org/2000/svg">
    <path
        d="M21.4 13.6C21.976 13.6 22.4404 14.0644 23.368 14.992L23.608 15.232C24.5356 16.1596 25 16.624 25 17.2C25 17.776 24.5356 18.2404 23.608 19.168L23.368 19.408C22.4404 20.3356 21.976 20.8 21.4 20.8C20.824 20.8 20.3595 20.3356 19.4319 19.408L19.1919 19.168C18.2643 18.2404 17.7999 17.776 17.7999 17.2C17.7999 16.624 18.2643 16.1596 19.1919 15.232L19.4319 14.992C20.3595 14.0644 20.824 13.6 21.4 13.6ZM21.4 13.6V10C21.4 7.7368 21.4 6.6064 20.698 5.9032C19.9947 5.2 18.8643 5.2 16.6023 5.2H15.4023M5.80699 5.2H1.00933M1.00933 5.2V1M1.00933 5.2V13C1.00933 14.3248 0.82693 15.9616 2.07494 16.7956C2.67975 17.2 3.52216 17.2 5.20698 17.2M15.4023 17.2H17.8023M25 25C23.8816 25 23.3224 25 22.882 24.844C22.294 24.634 21.826 24.2344 21.5824 23.7304C21.4 23.3524 21.4 22.8724 21.4 21.9148V21.4M5.79979 5.2C5.79979 4.078 5.79979 3.5176 6.04099 3.1C6.19897 2.82639 6.42618 2.59918 6.6998 2.4412C7.1174 2.2 7.67781 2.2 8.79982 2.2H12.3999C13.5219 2.2 14.0823 2.2 14.4999 2.4412C14.7735 2.59918 15.0007 2.82639 15.1587 3.1C15.3999 3.5176 15.3999 4.078 15.3999 5.2C15.3999 6.322 15.3999 6.8824 15.1587 7.3C15.0007 7.57361 14.7735 7.80082 14.4999 7.9588C14.0823 8.2 13.5219 8.2 12.3999 8.2H8.79982C7.67781 8.2 7.1174 8.2 6.6998 7.9588C6.42618 7.80082 6.19897 7.57361 6.04099 7.3C5.79979 6.8824 5.79979 6.322 5.79979 5.2ZM5.79979 17.2C5.79979 16.078 5.79979 15.5176 6.04099 15.1C6.19897 14.8264 6.42618 14.5992 6.6998 14.4412C7.1174 14.2 7.67781 14.2 8.79982 14.2H12.3999C13.5219 14.2 14.0823 14.2 14.4999 14.4412C14.7735 14.5992 15.0007 14.8264 15.1587 15.1C15.3999 15.5176 15.3999 16.078 15.3999 17.2C15.3999 18.322 15.3999 18.8824 15.1587 19.3C15.0007 19.5736 14.7735 19.8008 14.4999 19.9588C14.0823 20.2 13.5219 20.2 12.3999 20.2H8.79982C7.67781 20.2 7.1174 20.2 6.6998 19.9588C6.42618 19.8008 6.19897 19.5736 6.04099 19.3C5.79979 18.8824 5.79979 18.322 5.79979 17.2Z"
        stroke="white" stroke-width="1.5" stroke-linecap="round" stroke-linejoin="round" />
</svg>