<svg xmlns="http://www.w3.org/2000/svg" width="46" height="46" viewBox="0 0 46 46" fill="none">
  <path d="M28.784 29.6562C28.025 30.4308 27.1191 31.0462 26.1193 31.4664C25.1195 31.8865 24.0459 32.1029 22.9614 32.1029C21.8769 32.1029 20.8033 31.8865 19.8034 31.4664C18.8036 31.0462 17.8977 30.4308 17.1387 29.6562M13.6451 15.6818L18.3032 20.3399M18.3032 15.6818L13.6451 20.3399M27.6195 15.6818L32.2776 20.3399M32.2776 15.6818L27.6195 20.3399M2 22.6695C2 25.4223 2.54219 28.148 3.5956 30.6912C4.64902 33.2344 6.19303 35.5451 8.13949 37.4916C10.086 39.4381 12.3967 40.9821 14.9399 42.0355C17.4831 43.0889 20.2088 43.6311 22.9615 43.6311C25.7142 43.6311 28.44 43.0889 30.9832 42.0355C33.5263 40.9821 35.8371 39.4381 37.7836 37.4916C39.73 35.5451 41.2741 33.2344 42.3275 30.6912C43.3809 28.148 43.9231 25.4223 43.9231 22.6695C43.9231 19.9168 43.3809 17.1911 42.3275 14.6479C41.2741 12.1047 39.73 9.79396 37.7836 7.8475C35.8371 5.90104 33.5263 4.35703 30.9832 3.30361C28.44 2.25019 25.7142 1.70801 22.9615 1.70801C20.2088 1.70801 17.4831 2.25019 14.9399 3.30361C12.3967 4.35703 10.086 5.90104 8.13949 7.8475C6.19303 9.79396 4.64902 12.1047 3.5956 14.6479C2.54219 17.1911 2 19.9168 2 22.6695Z" stroke="#4D5FFF" stroke-width="3" stroke-linecap="round" stroke-linejoin="round"/>
</svg>