<svg xmlns="http://www.w3.org/2000/svg" width="44" height="44" viewBox="0 0 44 44" fill="none">
  <path d="M22 4C19.6362 4 17.2956 4.46558 15.1117 5.37017C12.9278 6.27475 10.9435 7.60062 9.27208 9.27208C7.60062 10.9435 6.27475 12.9278 5.37017 15.1117C4.46558 17.2956 4 19.6362 4 22C4 24.3638 4.46558 26.7044 5.37017 28.8883C6.27475 31.0722 7.60062 33.0565 9.27208 34.7279C10.9435 36.3994 12.9278 37.7253 15.1117 38.6298C17.2956 39.5344 19.6362 40 22 40C26.7739 40 31.3523 38.1036 34.7279 34.7279C38.1036 31.3523 40 26.7739 40 22C40 17.2261 38.1036 12.6477 34.7279 9.27208C31.3523 5.89642 26.7739 4 22 4ZM0 22C0 9.85 9.85 0 22 0C34.15 0 44 9.85 44 22C44 34.15 34.15 44 22 44C9.85 44 0 34.15 0 22ZM16 14V22H12V14H16ZM32 14V22H28V14H32ZM31.436 25.56L30.936 27.5C30.398 29.59 29.35 31.29 27.71 32.434C26.098 33.56 24.126 34 22 34H20V30H22C23.6 30 24.686 29.666 25.42 29.154C26.126 28.662 26.714 27.862 27.064 26.502L27.562 24.564L31.436 25.56Z" fill="#4D5FFF"/>
</svg>