<svg xmlns="http://www.w3.org/2000/svg" width="44" height="44" viewBox="0 0 44 44" fill="none">
  <path d="M12.159 19.3254L11.4519 20.0325L11.4519 20.0325L12.159 19.3254ZM15.341 19.3254L16.0481 20.0325L16.0481 20.0325L15.341 19.3254ZM28.659 19.3254L27.9519 20.0325L27.9519 20.0325L28.659 19.3254ZM31.841 19.3254L32.5481 20.0325L32.5481 20.0325L31.841 19.3254ZM34.3281 34.3281L33.6231 33.6189L33.621 33.621L34.3281 34.3281ZM28.7828 38.0687L28.3922 37.1482L28.3921 37.1483L28.7828 38.0687ZM15.2125 38.0687L15.6025 37.1479L15.6016 37.1475L15.2125 38.0687ZM9.66719 34.3281L10.3756 33.6223L10.3743 33.621L9.66719 34.3281ZM5.92657 28.7828L5.00535 29.1719L5.00603 29.1735L5.92657 28.7828ZM5.93125 15.2125L6.85205 15.6025L6.85247 15.6016L5.93125 15.2125ZM9.67188 9.66719L10.3776 10.3756L10.379 10.3743L9.67188 9.66719ZM15.2172 5.92656L14.8281 5.00534L14.8265 5.00603L15.2172 5.92656ZM28.7875 5.93125L28.3975 6.85205L28.3984 6.85246L28.7875 5.93125ZM34.3328 9.67188L33.6244 10.3776L33.6257 10.379L34.3328 9.67188ZM38.0734 15.2172L38.9947 14.8281L38.994 14.8265L38.0734 15.2172ZM38.0687 28.7875L37.1479 28.3975L37.1474 28.3987L38.0687 28.7875ZM22.1105 20.5491C21.5708 20.432 21.0383 20.7746 20.9212 21.3143C20.8041 21.854 21.1466 22.3865 21.6864 22.5036L22.1105 20.5491ZM23.3976 21.8517L23.6104 20.8746L23.6097 20.8744L23.3976 21.8517ZM24.605 26.8925L25.2348 27.6693L25.2374 27.6672L24.605 26.8925ZM23.3641 27.8987L22.7343 27.1219C22.5001 27.3118 22.3641 27.5972 22.3641 27.8987C22.3641 28.2002 22.5001 28.4856 22.7343 28.6754L23.3641 27.8987ZM24.605 28.9048L25.2362 28.1293L25.2348 28.1281L24.605 28.9048ZM23.3976 33.949L23.1859 32.9717L23.1855 32.9718L23.3976 33.949ZM21.6864 33.2971C21.1466 33.4142 20.8041 33.9467 20.9212 34.4864C21.0383 35.0261 21.5708 35.3687 22.1105 35.2516L21.6864 33.2971ZM10.5 17.7344C10.5 18.5963 10.8424 19.423 11.4519 20.0325L12.8661 18.6183C12.6317 18.3838 12.5 18.0659 12.5 17.7344H10.5ZM11.4519 20.0325C12.0614 20.642 12.888 20.9844 13.75 20.9844V18.9844C13.4185 18.9844 13.1005 18.8527 12.8661 18.6183L11.4519 20.0325ZM13.75 20.9844C14.612 20.9844 15.4386 20.642 16.0481 20.0325L14.6339 18.6183C14.3995 18.8527 14.0815 18.9844 13.75 18.9844V20.9844ZM16.0481 20.0325C16.6576 19.423 17 18.5963 17 17.7344H15C15 18.0659 14.8683 18.3838 14.6339 18.6183L16.0481 20.0325ZM17 17.7344C17 16.8724 16.6576 16.0458 16.0481 15.4363L14.6339 16.8505C14.8683 17.0849 15 17.4029 15 17.7344H17ZM16.0481 15.4363C15.4386 14.8268 14.612 14.4844 13.75 14.4844V16.4844C14.0815 16.4844 14.3995 16.6161 14.6339 16.8505L16.0481 15.4363ZM13.75 14.4844C12.888 14.4844 12.0614 14.8268 11.4519 15.4363L12.8661 16.8505C13.1005 16.6161 13.4185 16.4844 13.75 16.4844V14.4844ZM11.4519 15.4363C10.8424 16.0458 10.5 16.8724 10.5 17.7344H12.5C12.5 17.4029 12.6317 17.0849 12.8661 16.8505L11.4519 15.4363ZM27 17.7344C27 18.5963 27.3424 19.423 27.9519 20.0325L29.3661 18.6183C29.1317 18.3838 29 18.0659 29 17.7344H27ZM27.9519 20.0325C28.5614 20.642 29.388 20.9844 30.25 20.9844V18.9844C29.9185 18.9844 29.6005 18.8527 29.3661 18.6183L27.9519 20.0325ZM30.25 20.9844C31.112 20.9844 31.9386 20.642 32.5481 20.0325L31.1339 18.6183C30.8995 18.8527 30.5815 18.9844 30.25 18.9844V20.9844ZM32.5481 20.0325C33.1576 19.423 33.5 18.5963 33.5 17.7344H31.5C31.5 18.0659 31.3683 18.3838 31.1339 18.6183L32.5481 20.0325ZM33.5 17.7344C33.5 16.8724 33.1576 16.0458 32.5481 15.4363L31.1339 16.8505C31.3683 17.0849 31.5 17.4029 31.5 17.7344H33.5ZM32.5481 15.4363C31.9386 14.8268 31.112 14.4844 30.25 14.4844V16.4844C30.5815 16.4844 30.8995 16.6161 31.1339 16.8505L32.5481 15.4363ZM30.25 14.4844C29.388 14.4844 28.5614 14.8268 27.9519 15.4363L29.3661 16.8505C29.6005 16.6161 29.9185 16.4844 30.25 16.4844V14.4844ZM27.9519 15.4363C27.3424 16.0458 27 16.8724 27 17.7344H29C29 17.4029 29.1317 17.0849 29.3661 16.8505L27.9519 15.4363ZM22 0C9.85084 0 0 9.85084 0 22H2C2 10.9554 10.9554 2 22 2V0ZM0 22C0 34.1492 9.85084 44 22 44V42C10.9554 42 2 33.0446 2 22H0ZM22 44C34.1492 44 44 34.1492 44 22H42C42 33.0446 33.0446 42 22 42V44ZM44 22C44 9.85084 34.1492 0 22 0V2C33.0446 2 42 10.9554 42 22H44ZM33.621 33.621C32.1088 35.1332 30.3507 36.3171 28.3922 37.1482L29.1735 38.9893C31.3681 38.0579 33.3412 36.7293 35.0352 35.0352L33.621 33.621ZM28.3921 37.1483C26.3756 38.0042 24.2259 38.4375 22 38.4375V40.4375C24.4897 40.4375 26.9056 39.952 29.1736 38.9892L28.3921 37.1483ZM22 38.4375C19.7742 38.4375 17.6242 38.0043 15.6025 37.1479L14.8225 38.9895C17.0945 39.952 19.5102 40.4375 22 40.4375V38.4375ZM15.6016 37.1475C13.6476 36.3223 11.8727 35.125 10.3756 33.6223L8.95875 35.0339C10.6388 36.7202 12.6306 38.0639 14.8234 38.99L15.6016 37.1475ZM10.3743 33.621C8.8621 32.1088 7.67826 30.3507 6.8471 28.3922L5.00603 29.1735C5.93737 31.3681 7.26603 33.3412 8.96008 35.0352L10.3743 33.621ZM6.84778 28.3938C5.99578 26.3763 5.5625 24.226 5.5625 22H3.5625C3.5625 24.4897 4.04798 26.9049 5.00535 29.1719L6.84778 28.3938ZM5.5625 22C5.5625 19.7742 5.99571 17.6242 6.85205 15.6025L5.01045 14.8225C4.04804 17.0945 3.5625 19.5102 3.5625 22H5.5625ZM6.85247 15.6016C7.67769 13.6476 8.87497 11.8726 10.3776 10.3756L8.9661 8.95875C7.27975 10.6388 5.93613 12.6306 5.01004 14.8234L6.85247 15.6016ZM10.379 10.3743C11.8912 8.8621 13.6493 7.67825 15.6078 6.8471L14.8265 5.00603C12.6319 5.93737 10.6588 7.26603 8.96477 8.96008L10.379 10.3743ZM15.6062 6.84778C17.6237 5.99578 19.774 5.5625 22 5.5625V3.5625C19.5103 3.5625 17.0951 4.04797 14.8281 5.00534L15.6062 6.84778ZM22 5.5625C24.2258 5.5625 26.3758 5.99571 28.3975 6.85205L29.1775 5.01045C26.9055 4.04804 24.4898 3.5625 22 3.5625V5.5625ZM28.3984 6.85246C30.3524 7.67769 32.1274 8.87497 33.6244 10.3776L35.0413 8.9661C33.3613 7.27975 31.3694 5.93613 29.1766 5.01003L28.3984 6.85246ZM33.6257 10.379C35.1379 11.8912 36.3217 13.6493 37.1529 15.6078L38.994 14.8265C38.0626 12.6319 36.734 10.6588 35.0399 8.96477L33.6257 10.379ZM37.1522 15.6062C38.0042 17.6237 38.4375 19.774 38.4375 22H40.4375C40.4375 19.5103 39.952 17.0951 38.9947 14.8281L37.1522 15.6062ZM38.4375 22C38.4375 24.2258 38.0043 26.3758 37.1479 28.3975L38.9895 29.1775C39.952 26.9055 40.4375 24.4898 40.4375 22H38.4375ZM37.1474 28.3987C36.3234 30.3515 35.1263 32.1247 33.6231 33.6189L35.0331 35.0373C36.7208 33.3596 38.0649 31.3687 38.9901 29.1763L37.1474 28.3987ZM21.6864 22.5036L23.1855 22.8289L23.6097 20.8744L22.1105 20.5491L21.6864 22.5036ZM23.1848 22.8288C23.5299 22.9039 23.8468 23.0749 24.0991 23.3221L25.4987 21.8933C24.9776 21.3829 24.3231 21.0298 23.6104 20.8746L23.1848 22.8288ZM24.0991 23.3221C24.3514 23.5692 24.5289 23.8825 24.6112 24.226L26.5562 23.7602C26.3863 23.0508 26.0197 22.4038 25.4987 21.8933L24.0991 23.3221ZM24.6112 24.226C24.6935 24.5695 24.6772 24.9292 24.5642 25.2639L26.4592 25.9035C26.6925 25.2124 26.7261 24.4695 26.5562 23.7602L24.6112 24.226ZM24.5642 25.2639C24.4513 25.5985 24.2462 25.8945 23.9726 26.1179L25.2374 27.6672C25.8024 27.2059 26.2259 26.5946 26.4592 25.9035L24.5642 25.2639ZM23.9752 26.1158L22.7343 27.1219L23.9939 28.6754L25.2348 27.6693L23.9752 26.1158ZM22.7343 28.6754L23.9752 29.6816L25.2348 28.1281L23.9939 27.1219L22.7343 28.6754ZM23.9737 29.6804C24.248 29.9036 24.4536 30.1998 24.567 30.5347L26.4614 29.8935C26.2273 29.2018 25.8026 28.5902 25.2362 28.1293L23.9737 29.6804ZM24.567 30.5347C24.6804 30.8696 24.6968 31.2298 24.6145 31.5737L26.5596 32.0393C26.7296 31.3291 26.6955 30.5853 26.4614 29.8935L24.567 30.5347ZM24.6145 31.5737C24.5322 31.9176 24.3544 32.2313 24.1017 32.4786L25.5005 33.908C26.0225 33.3973 26.3896 32.7495 26.5596 32.0393L24.6145 31.5737ZM24.1017 32.4786C23.849 32.7259 23.5315 32.8968 23.1859 32.9717L23.6093 34.9264C24.323 34.7718 24.9786 34.4188 25.5005 33.908L24.1017 32.4786ZM23.1855 32.9718L21.6864 33.2971L22.1105 35.2516L23.6097 34.9263L23.1855 32.9718Z" fill="#4D5FFF"/>
</svg>