<svg xmlns="http://www.w3.org/2000/svg" width="42" height="42" viewBox="0 0 42 42" fill="none">
  <path d="M15.1284 25.2305C14.5724 25.2305 14.0393 25.4513 13.6462 25.8444C13.2531 26.2375 13.0322 26.7707 13.0322 27.3266C13.0322 27.8826 13.2531 28.4157 13.6462 28.8088C14.0393 29.2019 14.5724 29.4228 15.1284 29.4228H27.7053C28.2612 29.4228 28.7944 29.2019 29.1875 28.8088C29.5806 28.4157 29.8015 27.8826 29.8015 27.3266C29.8015 26.7707 29.5806 26.2375 29.1875 25.8444C28.7944 25.4513 28.2612 25.2305 27.7053 25.2305H15.1284Z" fill="#4D5FFF"/>
  <path d="M10.5 16.7344C10.5 17.3311 10.7371 17.9034 11.159 18.3254C11.581 18.7473 12.1533 18.9844 12.75 18.9844C13.3467 18.9844 13.919 18.7473 14.341 18.3254C14.7629 17.9034 15 17.3311 15 16.7344C15 16.1376 14.7629 15.5653 14.341 15.1434C13.919 14.7214 13.3467 14.4844 12.75 14.4844C12.1533 14.4844 11.581 14.7214 11.159 15.1434C10.7371 15.5653 10.5 16.1376 10.5 16.7344ZM27 16.7344C27 17.3311 27.2371 17.9034 27.659 18.3254C28.081 18.7473 28.6533 18.9844 29.25 18.9844C29.8467 18.9844 30.419 18.7473 30.841 18.3254C31.2629 17.9034 31.5 17.3311 31.5 16.7344C31.5 16.1376 31.2629 15.5653 30.841 15.1434C30.419 14.7214 29.8467 14.4844 29.25 14.4844C28.6533 14.4844 28.081 14.7214 27.659 15.1434C27.2371 15.5653 27 16.1376 27 16.7344ZM21 0C9.40312 0 0 9.40312 0 21C0 32.5969 9.40312 42 21 42C32.5969 42 42 32.5969 42 21C42 9.40312 32.5969 0 21 0ZM33.3281 33.3281C31.725 34.9312 29.8594 36.1875 27.7828 37.0687C25.6406 37.9781 23.3578 38.4375 21 38.4375C18.6422 38.4375 16.3594 37.9781 14.2125 37.0687C12.1391 36.1931 10.2557 34.9226 8.66719 33.3281C7.06406 31.725 5.80781 29.8594 4.92656 27.7828C4.02187 25.6406 3.5625 23.3578 3.5625 21C3.5625 18.6422 4.02187 16.3594 4.93125 14.2125C5.80691 12.1391 7.07736 10.2557 8.67188 8.66719C10.275 7.06406 12.1406 5.80781 14.2172 4.92656C16.3594 4.02187 18.6422 3.5625 21 3.5625C23.3578 3.5625 25.6406 4.02187 27.7875 4.93125C29.8609 5.80691 31.7443 7.07736 33.3328 8.67188C34.9359 10.275 36.1922 12.1406 37.0734 14.2172C37.9781 16.3594 38.4375 18.6422 38.4375 21C38.4375 23.3578 37.9781 25.6406 37.0687 27.7875C36.1941 29.8601 34.9235 31.7421 33.3281 33.3281Z" fill="#4D5FFF"/>
</svg>