<svg xmlns="http://www.w3.org/2000/svg" width="44" height="44" viewBox="0 0 44 44" fill="none">
  <path d="M12.159 19.3254L11.4519 20.0325L11.4519 20.0325L12.159 19.3254ZM15.341 19.3254L16.0481 20.0325L16.0481 20.0325L15.341 19.3254ZM15.341 16.1434L14.6339 16.8505L14.6339 16.8505L15.341 16.1434ZM12.159 16.1434L11.4519 15.4363L11.4519 15.4363L12.159 16.1434ZM28.659 19.3254L27.9519 20.0325L27.9519 20.0325L28.659 19.3254ZM31.841 19.3254L32.5481 20.0325L32.5481 20.0325L31.841 19.3254ZM28.659 16.1434L27.9519 15.4363L27.9519 15.4363L28.659 16.1434ZM34.3281 34.3281L33.6231 33.6189L33.621 33.621L34.3281 34.3281ZM28.7828 38.0687L28.3922 37.1482L28.3921 37.1483L28.7828 38.0687ZM15.2125 38.0687L15.6025 37.1479L15.6016 37.1475L15.2125 38.0687ZM9.66719 34.3281L10.3756 33.6223L10.3743 33.621L9.66719 34.3281ZM5.92656 28.7828L5.00534 29.1719L5.00603 29.1735L5.92656 28.7828ZM5.93125 15.2125L6.85205 15.6025L6.85246 15.6016L5.93125 15.2125ZM9.67188 9.66719L10.3776 10.3756L10.379 10.3743L9.67188 9.66719ZM15.2172 5.92656L14.8281 5.00534L14.8265 5.00603L15.2172 5.92656ZM28.7875 5.93125L28.3975 6.85205L28.3984 6.85246L28.7875 5.93125ZM34.3328 9.67188L33.6244 10.3776L33.6257 10.379L34.3328 9.67188ZM38.0734 15.2172L38.9947 14.8281L38.994 14.8265L38.0734 15.2172ZM38.0687 28.7875L37.1479 28.3975L37.1474 28.3987L38.0687 28.7875ZM16.9166 28.2861C16.593 28.7336 16.6935 29.3588 17.1411 29.6824C17.5886 30.006 18.2137 29.9055 18.5373 29.458L16.9166 28.2861ZM26.6313 29.458C26.9549 29.9055 27.5801 30.006 28.0276 29.6824C28.4752 29.3588 28.5756 28.7336 28.252 28.2861L26.6313 29.458ZM16.2448 25.6366C15.7383 25.4164 15.1492 25.6486 14.9291 26.1551C14.7089 26.6616 14.941 27.2507 15.4476 27.4708L16.2448 25.6366ZM16.5197 30.9974C16.3299 31.5161 16.5966 32.0904 17.1153 32.2801C17.6339 32.4698 18.2082 32.2032 18.3979 31.6845L16.5197 30.9974ZM29.6602 27.4708C30.1667 27.2507 30.3988 26.6616 30.1787 26.1551C29.9585 25.6486 29.3694 25.4164 28.8629 25.6366L29.6602 27.4708ZM26.7098 31.6845C26.8996 32.2032 27.4738 32.4698 27.9925 32.2801C28.5112 32.0904 28.7778 31.5161 28.5881 30.9974L26.7098 31.6845ZM10.5 17.7344C10.5 18.5963 10.8424 19.423 11.4519 20.0325L12.8661 18.6183C12.6317 18.3838 12.5 18.0659 12.5 17.7344H10.5ZM11.4519 20.0325C12.0614 20.642 12.888 20.9844 13.75 20.9844V18.9844C13.4185 18.9844 13.1005 18.8527 12.8661 18.6183L11.4519 20.0325ZM13.75 20.9844C14.612 20.9844 15.4386 20.642 16.0481 20.0325L14.6339 18.6183C14.3995 18.8527 14.0815 18.9844 13.75 18.9844V20.9844ZM16.0481 20.0325C16.6576 19.423 17 18.5963 17 17.7344H15C15 18.0659 14.8683 18.3838 14.6339 18.6183L16.0481 20.0325ZM17 17.7344C17 16.8724 16.6576 16.0458 16.0481 15.4363L14.6339 16.8505C14.8683 17.0849 15 17.4029 15 17.7344H17ZM16.0481 15.4363C15.4386 14.8268 14.612 14.4844 13.75 14.4844V16.4844C14.0815 16.4844 14.3995 16.6161 14.6339 16.8505L16.0481 15.4363ZM13.75 14.4844C12.888 14.4844 12.0614 14.8268 11.4519 15.4363L12.8661 16.8505C13.1005 16.6161 13.4185 16.4844 13.75 16.4844V14.4844ZM11.4519 15.4363C10.8424 16.0458 10.5 16.8724 10.5 17.7344H12.5C12.5 17.4029 12.6317 17.0849 12.8661 16.8505L11.4519 15.4363ZM27 17.7344C27 18.5963 27.3424 19.423 27.9519 20.0325L29.3661 18.6183C29.1317 18.3838 29 18.0659 29 17.7344H27ZM27.9519 20.0325C28.5614 20.642 29.388 20.9844 30.25 20.9844V18.9844C29.9185 18.9844 29.6005 18.8527 29.3661 18.6183L27.9519 20.0325ZM30.25 20.9844C31.112 20.9844 31.9386 20.642 32.5481 20.0325L31.1339 18.6183C30.8995 18.8527 30.5815 18.9844 30.25 18.9844V20.9844ZM32.5481 20.0325C33.1576 19.423 33.5 18.5963 33.5 17.7344H31.5C31.5 18.0659 31.3683 18.3838 31.1339 18.6183L32.5481 20.0325ZM33.5 17.7344C33.5 16.8724 33.1576 16.0458 32.5481 15.4363L31.1339 16.8505C31.3683 17.0849 31.5 17.4029 31.5 17.7344H33.5ZM32.5481 15.4363C31.9386 14.8268 31.112 14.4844 30.25 14.4844V16.4844C30.5815 16.4844 30.8995 16.6161 31.1339 16.8505L32.5481 15.4363ZM30.25 14.4844C29.388 14.4844 28.5614 14.8268 27.9519 15.4363L29.3661 16.8505C29.6005 16.6161 29.9185 16.4844 30.25 16.4844V14.4844ZM27.9519 15.4363C27.3424 16.0458 27 16.8724 27 17.7344H29C29 17.4029 29.1317 17.0849 29.3661 16.8505L27.9519 15.4363ZM22 0C9.85084 0 0 9.85084 0 22H2C2 10.9554 10.9554 2 22 2V0ZM0 22C0 34.1492 9.85084 44 22 44V42C10.9554 42 2 33.0446 2 22H0ZM22 44C34.1492 44 44 34.1492 44 22H42C42 33.0446 33.0446 42 22 42V44ZM44 22C44 9.85084 34.1492 0 22 0V2C33.0446 2 42 10.9554 42 22H44ZM33.621 33.621C32.1088 35.1332 30.3507 36.3171 28.3922 37.1482L29.1735 38.9893C31.3681 38.0579 33.3412 36.7293 35.0352 35.0352L33.621 33.621ZM28.3921 37.1483C26.3756 38.0042 24.2259 38.4375 22 38.4375V40.4375C24.4897 40.4375 26.9056 39.952 29.1736 38.9892L28.3921 37.1483ZM22 38.4375C19.7742 38.4375 17.6242 38.0043 15.6025 37.1479L14.8225 38.9895C17.0945 39.952 19.5102 40.4375 22 40.4375V38.4375ZM15.6016 37.1475C13.6476 36.3223 11.8726 35.125 10.3756 33.6223L8.95875 35.0339C10.6388 36.7202 12.6306 38.0639 14.8234 38.99L15.6016 37.1475ZM10.3743 33.621C8.8621 32.1088 7.67825 30.3507 6.8471 28.3922L5.00603 29.1735C5.93737 31.3681 7.26603 33.3412 8.96008 35.0352L10.3743 33.621ZM6.84778 28.3938C5.99578 26.3763 5.5625 24.226 5.5625 22H3.5625C3.5625 24.4897 4.04797 26.9049 5.00534 29.1719L6.84778 28.3938ZM5.5625 22C5.5625 19.7742 5.99571 17.6242 6.85205 15.6025L5.01045 14.8225C4.04804 17.0945 3.5625 19.5102 3.5625 22H5.5625ZM6.85246 15.6016C7.67769 13.6476 8.87497 11.8726 10.3776 10.3756L8.9661 8.95875C7.27975 10.6388 5.93613 12.6306 5.01003 14.8234L6.85246 15.6016ZM10.379 10.3743C11.8912 8.8621 13.6493 7.67825 15.6078 6.8471L14.8265 5.00603C12.6319 5.93737 10.6588 7.26603 8.96477 8.96008L10.379 10.3743ZM15.6062 6.84778C17.6237 5.99578 19.774 5.5625 22 5.5625V3.5625C19.5103 3.5625 17.0951 4.04797 14.8281 5.00534L15.6062 6.84778ZM22 5.5625C24.2258 5.5625 26.3758 5.99571 28.3975 6.85205L29.1775 5.01045C26.9055 4.04804 24.4898 3.5625 22 3.5625V5.5625ZM28.3984 6.85246C30.3524 7.67769 32.1274 8.87497 33.6244 10.3776L35.0412 8.9661C33.3612 7.27975 31.3694 5.93613 29.1766 5.01003L28.3984 6.85246ZM33.6257 10.379C35.1379 11.8912 36.3217 13.6493 37.1529 15.6078L38.994 14.8265C38.0626 12.6319 36.734 10.6588 35.0399 8.96477L33.6257 10.379ZM37.1522 15.6062C38.0042 17.6237 38.4375 19.774 38.4375 22H40.4375C40.4375 19.5103 39.952 17.0951 38.9947 14.8281L37.1522 15.6062ZM38.4375 22C38.4375 24.2258 38.0043 26.3758 37.1479 28.3975L38.9895 29.1775C39.952 26.9055 40.4375 24.4898 40.4375 22H38.4375ZM37.1474 28.3987C36.3234 30.3515 35.1263 32.1247 33.6231 33.6189L35.0331 35.0373C36.7208 33.3596 38.0649 31.3687 38.9901 29.1763L37.1474 28.3987ZM18.5373 29.458C18.9288 28.9166 20.3774 27.6323 22.5832 27.6323V25.6323C19.6112 25.6323 17.6048 27.3344 16.9166 28.2861L18.5373 29.458ZM22.5832 27.6323C24.7914 27.6323 26.24 28.9168 26.6313 29.458L28.252 28.2861C27.5637 27.3342 25.5573 25.6323 22.5832 25.6323V27.6323ZM15.4476 27.4708C16.5779 27.9622 17.1121 29.378 16.5197 30.9974L18.3979 31.6845C19.2206 29.4356 18.6659 26.689 16.2448 25.6366L15.4476 27.4708ZM28.8629 25.6366C26.4419 26.689 25.8872 29.4356 26.7098 31.6845L28.5881 30.9974C27.9957 29.378 28.5298 27.9622 29.6602 27.4708L28.8629 25.6366Z" fill="#4D5FFF"/>
</svg>